<?xml version="1.0" standalone="no"?>
<!DOCTYPE svg PUBLIC "-//W3C//DTD SVG 20010904//EN"
 "http://www.w3.org/TR/2001/REC-SVG-20010904/DTD/svg10.dtd">
<svg version="1.0" xmlns="http://www.w3.org/2000/svg"
 width="1125.000000pt" height="1164.000000pt" viewBox="0 0 1125.000000 1164.000000"
 preserveAspectRatio="xMidYMid meet">

<g transform="translate(0.000000,1164.000000) scale(0.100000,-0.100000)"
fill="#00000" stroke="none">
<path d="M7410 10386 c0 -9 7 -16 16 -16 9 0 14 5 12 12 -6 18 -28 21 -28 4z"/>
<path d="M5135 9558 c-243 -7 -304 -11 -415 -28 -41 -6 -100 -15 -130 -20 -63
-9 -179 -38 -325 -81 -55 -16 -118 -33 -140 -38 -51 -12 -154 -50 -225 -83
-148 -69 -195 -93 -315 -169 -71 -44 -143 -88 -158 -97 -16 -10 -37 -24 -47
-32 -9 -8 -39 -33 -66 -55 -175 -142 -338 -329 -429 -490 -97 -172 -138 -256
-150 -310 -4 -16 -13 -43 -20 -60 -24 -53 -47 -109 -56 -140 -10 -29 -56 -236
-65 -285 -3 -14 -11 -61 -19 -105 -8 -44 -17 -114 -20 -155 -4 -41 -8 -91 -10
-110 -15 -125 -15 -268 -1 -455 9 -115 19 -225 22 -242 5 -24 3 -33 -7 -33
-21 0 -137 127 -155 168 -64 150 -120 400 -153 684 -7 62 -15 78 -32 61 -22
-22 -29 -93 -28 -263 2 -179 18 -363 44 -505 8 -44 18 -106 21 -137 l7 -57
-32 9 c-17 5 -43 18 -59 30 -38 30 -122 126 -122 139 0 6 -4 11 -8 11 -4 0
-16 33 -26 73 -10 39 -27 91 -37 115 -11 24 -19 52 -19 62 0 10 -7 31 -15 46
-19 38 -20 93 0 100 20 8 19 22 -2 26 -31 6 -50 223 -28 316 9 37 -2 41 -34
15 -59 -49 -78 -475 -36 -792 9 -67 14 -125 11 -128 -11 -11 -86 48 -117 90
-94 128 -139 241 -158 396 -15 113 -13 291 3 374 7 37 10 70 5 72 -34 22 -77
-96 -89 -243 -11 -145 -12 -414 -1 -480 5 -31 12 -81 16 -110 l6 -53 -33 3
c-26 2 -44 16 -92 73 -132 156 -180 353 -145 602 18 129 61 176 242 267 79 39
140 62 207 76 52 11 115 27 140 34 25 8 106 17 180 21 178 8 247 21 226 43 -4
4 -123 6 -264 4 -142 -1 -362 -3 -491 -3 -254 0 -301 -8 -301 -49 0 -11 -11
-48 -25 -81 -30 -75 -60 -250 -58 -344 4 -248 35 -486 80 -605 102 -275 118
-287 346 -276 215 11 1056 2 1068 -12 8 -8 31 -166 29 -202 0 -14 7 -50 15
-80 31 -109 67 -225 77 -250 5 -14 17 -45 25 -70 23 -71 82 -178 141 -259 60
-81 126 -151 143 -151 5 0 31 -16 55 -35 25 -19 69 -41 97 -49 29 -8 72 -28
97 -44 25 -15 78 -46 118 -67 48 -25 101 -65 151 -114 88 -87 122 -135 144
-206 24 -77 47 -259 47 -370 0 -55 5 -143 9 -195 5 -52 12 -138 16 -190 8
-139 34 -288 60 -345 29 -66 117 -151 175 -169 25 -8 82 -17 128 -20 80 -5 86
-4 151 28 60 31 71 41 99 94 31 58 42 112 23 112 -5 0 -16 2 -24 6 -10 3 -16
-4 -21 -26 -7 -37 -62 -96 -98 -105 -14 -4 -43 -2 -66 4 -75 21 -80 45 -122
701 -9 132 -20 229 -39 320 -24 123 -31 152 -39 168 -5 9 -13 35 -17 57 -6 38
-94 191 -140 245 -12 14 -38 50 -58 80 -21 30 -50 69 -65 86 -38 43 -158 134
-177 134 -8 0 -15 4 -15 9 0 5 -9 12 -19 16 -19 6 -78 50 -199 147 -30 24 -63
57 -75 73 -12 17 -29 36 -38 42 -24 18 -69 97 -69 122 0 11 -21 84 -46 163
-46 144 -67 229 -78 303 -3 22 -9 60 -15 85 -20 95 -32 329 -32 623 0 309 11
484 35 567 8 25 19 73 25 108 30 158 86 319 185 522 69 143 134 253 197 333
22 27 39 52 39 56 0 12 212 217 277 269 34 27 94 69 133 93 39 24 100 62 134
84 35 22 99 56 142 77 43 20 123 57 177 82 55 25 118 49 140 52 23 4 49 12 57
19 17 15 127 48 215 65 33 6 71 14 85 18 14 3 27 6 30 7 3 0 34 8 70 17 120
30 204 40 379 45 202 5 491 -11 571 -31 30 -8 82 -20 115 -26 86 -17 338 -87
420 -116 39 -14 139 -59 222 -100 84 -41 155 -74 157 -74 9 0 207 -121 258
-157 124 -88 260 -203 323 -275 38 -43 72 -78 77 -78 4 0 8 10 8 23 0 32 -72
115 -180 208 -75 64 -242 187 -268 196 -9 4 -20 11 -24 17 -22 33 -306 183
-553 291 -271 119 -409 165 -624 206 -293 56 -310 57 -636 47z"/>
<path d="M8653 8059 c-37 -37 3 -56 127 -63 346 -19 389 -27 440 -79 39 -39
93 -106 108 -136 70 -129 75 -155 43 -207 -15 -25 -30 -33 -82 -46 -102 -26
-191 -38 -271 -38 -45 0 -81 -5 -92 -13 -16 -12 -16 -14 2 -30 14 -13 44 -18
133 -22 196 -8 249 -18 275 -48 38 -45 49 -123 49 -354 0 -203 -1 -213 -21
-234 -34 -33 -157 -68 -299 -85 -138 -16 -145 -18 -145 -39 0 -21 26 -26 165
-35 192 -12 264 -48 280 -138 8 -48 -19 -173 -45 -204 -18 -22 -102 -58 -136
-58 -12 0 -40 -7 -63 -14 -50 -18 -93 -24 -244 -32 -89 -5 -120 -11 -124 -21
-12 -31 16 -38 160 -39 78 -1 206 -6 285 -11 136 -8 144 -7 161 12 20 22 62
109 81 169 7 22 28 73 47 115 55 119 95 232 103 286 9 60 -5 489 -21 665 -7
69 -13 155 -15 192 -4 81 -25 127 -94 203 -28 31 -50 60 -50 66 0 12 -35 61
-97 135 -24 28 -43 60 -43 71 0 30 -63 47 -147 40 -97 -9 -382 -11 -423 -3
-23 5 -39 3 -47 -5z"/>
<path d="M8557 8033 c-8 -14 -47 -144 -62 -211 -22 -92 -51 -141 -89 -147 -17
-2 -110 -7 -206 -9 -96 -3 -225 -8 -287 -12 -108 -7 -112 -8 -118 -32 -5 -20
0 -30 22 -48 36 -30 90 -32 460 -15 129 6 178 12 196 24 29 19 83 101 93 140
13 56 60 43 93 -26 40 -82 80 -247 86 -352 10 -168 12 -385 5 -575 -7 -200 -8
-207 -39 -279 -17 -41 -31 -80 -31 -88 0 -16 -31 -73 -40 -73 -3 1 -18 19 -33
41 -24 35 -30 39 -44 28 -23 -20 -12 -72 38 -174 50 -102 68 -118 98 -91 28
26 115 208 158 331 33 94 35 105 29 190 -23 339 -35 564 -41 718 -7 199 -9
211 -32 270 -33 83 -156 313 -190 355 -32 39 -56 52 -66 35z"/>
<path d="M8601 7327 c-6 -8 -8 -24 -5 -38 54 -242 5 -636 -83 -670 -18 -7
-111 -9 -258 -7 -244 4 -264 8 -309 57 -31 34 -64 208 -65 339 -1 55 -3 63
-18 60 -22 -4 -29 -55 -38 -283 -17 -430 -25 -553 -44 -638 -24 -104 -62 -213
-98 -279 -40 -73 -184 -206 -273 -252 -274 -143 -354 -257 -398 -571 -12 -79
-8 -374 5 -449 12 -75 29 -68 37 16 4 40 19 111 32 157 36 125 108 289 132
298 7 3 26 24 41 47 16 22 40 53 54 67 26 25 231 169 242 169 20 0 142 90 182
134 64 70 97 142 118 256 18 100 20 130 31 440 6 172 9 233 13 284 1 11 31 14
146 14 79 1 155 4 167 7 13 3 110 9 217 14 185 8 195 9 213 31 17 21 41 93 67
203 16 67 14 261 -4 353 -25 134 -48 228 -58 242 -12 16 -32 15 -46 -1z"/>
<path d="M6420 7115 c-97 -19 -182 -50 -248 -92 -132 -83 -291 -291 -344 -451
-21 -61 -23 -85 -22 -267 0 -200 0 -200 32 -284 51 -135 112 -230 185 -287
109 -86 140 -106 224 -151 99 -52 175 -62 377 -50 143 9 248 29 371 73 65 23
91 39 137 84 56 54 80 102 61 121 -7 7 -39 6 -94 -1 -127 -15 -447 -13 -559 5
-137 23 -307 110 -284 147 4 6 0 16 -8 22 -8 6 -22 25 -31 42 -36 70 -47 120
-47 218 0 140 38 263 112 360 29 38 71 82 94 98 58 42 226 98 294 98 82 0 218
-28 279 -58 110 -55 261 -228 261 -299 0 -11 11 -51 23 -89 13 -38 27 -105 30
-149 7 -86 -7 -253 -23 -269 -12 -12 -13 -66 -2 -66 49 0 124 231 136 415 7
110 -16 263 -48 323 -8 15 -22 47 -31 72 -9 25 -32 71 -51 103 -19 32 -34 62
-34 66 0 23 -213 191 -242 191 -8 0 -18 4 -24 9 -5 5 -47 24 -94 41 -76 28
-99 32 -220 35 -90 3 -160 -1 -210 -10z"/>
<path d="M3955 7044 c-57 -5 -145 -26 -151 -36 -3 -4 -15 -8 -26 -8 -28 0
-177 -82 -248 -136 -30 -23 -68 -61 -85 -84 -16 -23 -42 -56 -56 -73 -32 -39
-60 -94 -85 -167 -16 -46 -19 -83 -18 -220 1 -182 11 -263 43 -327 12 -23 21
-46 21 -51 0 -5 7 -16 16 -23 15 -12 15 -6 8 66 -31 282 24 488 160 607 88 77
112 92 201 123 138 47 255 37 415 -38 80 -37 109 -57 176 -123 69 -69 82 -88
103 -149 47 -135 36 -303 -28 -439 -35 -72 -80 -117 -170 -170 -57 -33 -75
-38 -189 -51 -191 -23 -488 -17 -577 10 -11 3 -28 0 -38 -8 -18 -13 -18 -14 2
-51 24 -42 26 -45 76 -103 63 -72 209 -113 385 -107 356 12 384 15 460 40 269
90 478 343 506 614 17 161 16 206 -4 270 -54 173 -155 324 -280 417 -20 16
-43 34 -51 41 -8 8 -38 27 -67 44 -30 16 -57 34 -60 39 -3 5 -12 9 -20 9 -8 0
-33 9 -56 20 -89 43 -258 73 -363 64z"/>
<path d="M5136 6401 c-3 -5 -8 -53 -11 -107 -3 -55 -10 -123 -15 -153 -6 -30
-10 -91 -10 -135 0 -72 -10 -192 -40 -491 -18 -176 -30 -280 -34 -300 -3 -11
-2 -25 2 -30 8 -12 99 -32 191 -41 133 -14 439 32 471 71 7 8 6 22 -4 46 -7
19 -26 88 -41 154 -28 125 -56 180 -71 139 -20 -51 -70 -116 -111 -143 -39
-26 -56 -31 -105 -31 -55 0 -61 2 -93 37 -19 21 -45 67 -59 103 -46 126 -51
243 -31 749 4 98 -4 141 -25 141 -5 0 -11 -4 -14 -9z"/>
<path d="M6408 4773 c-2 -27 -1 -217 4 -423 10 -466 20 -539 89 -645 38 -57
58 -73 141 -107 135 -55 237 -47 305 25 56 57 96 164 66 174 -6 2 -19 -11 -29
-29 -39 -78 -81 -98 -164 -78 -101 24 -161 122 -181 295 -6 44 -12 181 -15
305 -7 330 -27 403 -133 484 -33 25 -64 46 -69 46 -6 0 -12 -21 -14 -47z"/>
<path d="M5568 4768 c-7 -18 -2 -567 6 -738 10 -216 24 -318 47 -360 26 -47
86 -85 171 -111 58 -18 75 -19 118 -10 97 21 148 60 194 148 17 33 22 113 8
113 -5 0 -26 -32 -48 -71 -27 -50 -50 -78 -74 -92 -45 -25 -72 -19 -128 30
-48 43 -65 91 -76 223 -4 41 -9 89 -11 105 -2 17 -4 136 -5 265 -2 240 -7 283
-46 380 -31 79 -141 161 -156 118z"/>
<path d="M4737 4763 c-17 -4 -18 -23 -12 -336 3 -183 7 -348 9 -367 2 -19 7
-91 10 -160 6 -114 10 -131 39 -189 39 -77 87 -122 160 -149 88 -33 147 -38
198 -15 92 41 139 110 139 205 0 67 -31 46 -54 -37 -8 -29 -80 -71 -114 -66
-66 8 -131 74 -153 155 -7 26 -12 178 -13 426 -1 421 -2 425 -62 467 -14 10
-41 30 -59 46 -31 26 -49 30 -88 20z"/>
<path d="M9875 3089 c-205 -9 -258 -24 -319 -86 -34 -34 -46 -56 -60 -113 -34
-130 2 -247 97 -319 30 -23 58 -41 64 -41 5 0 25 -7 42 -16 24 -12 70 -18 164
-21 223 -7 350 -37 395 -92 85 -106 56 -225 -71 -284 -70 -34 -304 -68 -522
-76 -159 -6 -170 -7 -170 -25 0 -13 9 -22 27 -27 42 -11 718 -9 758 3 103 31
127 44 187 102 57 57 62 65 68 119 11 84 0 142 -39 211 -38 67 -58 92 -109
130 -45 34 -143 47 -359 45 -216 -1 -247 11 -307 115 -17 31 -21 48 -16 85 16
116 50 154 177 196 83 28 84 28 332 26 194 -2 247 0 244 10 -8 23 -94 40 -238
45 -80 3 -149 9 -154 15 -6 5 -12 8 -15 8 -4 -1 -82 -6 -176 -10z"/>
<path d="M7903 3075 c-83 -58 -277 -415 -356 -655 -59 -178 -65 -224 -37 -282
32 -70 66 -95 166 -125 82 -25 103 -27 264 -28 96 0 231 4 300 9 112 8 135 13
223 48 56 24 97 46 97 54 0 18 -12 17 -172 -2 -102 -12 -144 -14 -187 -5 -31
5 -85 13 -121 16 -86 8 -208 33 -240 50 -46 24 -107 89 -120 128 -34 106 40
391 175 673 62 128 64 158 8 119z"/>
<path d="M6756 3072 c-10 -2 -40 -17 -66 -33 -26 -16 -51 -29 -55 -29 -4 0
-29 -18 -55 -40 -35 -29 -61 -65 -95 -130 -46 -91 -65 -110 -65 -67 0 65 -96
191 -183 239 -85 48 -130 53 -417 50 -318 -3 -375 -9 -375 -37 0 -19 9 -20
150 -28 244 -12 324 -32 399 -97 68 -60 101 -161 72 -218 -43 -82 -96 -96
-398 -101 -34 -1 -48 -5 -48 -15 0 -28 33 -38 187 -56 166 -19 207 -33 289
-95 76 -58 68 -204 -15 -277 -17 -16 -34 -28 -38 -28 -4 0 -27 -10 -52 -22
-43 -21 -60 -22 -276 -23 -208 0 -230 -2 -233 -17 -2 -11 5 -19 20 -22 75 -16
290 -29 492 -30 l231 -1 77 37 c91 43 137 97 153 180 l11 52 44 -58 c58 -74
134 -124 268 -177 l107 -42 100 7 c55 3 134 15 175 26 70 18 79 24 133 82 32
35 69 77 83 95 33 41 67 138 84 234 11 67 10 89 -4 165 -9 49 -25 112 -34 140
-21 59 -167 244 -209 264 -151 70 -162 73 -303 75 -74 1 -144 0 -154 -3z m252
-119 c29 -32 65 -75 78 -95 36 -56 73 -177 80 -260 11 -121 -22 -310 -74 -429
-22 -50 -77 -103 -99 -95 -8 4 -28 6 -44 6 -36 0 -109 63 -144 124 -45 79 -95
224 -106 305 -21 156 37 352 133 449 27 28 49 42 60 39 10 -3 21 -1 24 4 12
21 41 6 92 -48z m-599 -519 c6 -21 9 -40 6 -42 -4 -4 -107 104 -113 119 -2 4
16 32 40 63 l43 56 7 -79 c3 -44 11 -96 17 -117z"/>
<path d="M4341 3035 c-27 -12 -31 -18 -22 -29 9 -11 39 -14 114 -15 148 -1
229 -20 354 -82 147 -74 233 -154 263 -245 18 -54 21 -79 16 -146 -13 -180
-126 -317 -332 -400 -128 -51 -266 -88 -333 -88 l-28 0 -6 107 c-4 58 -7 167
-8 242 -1 187 -17 276 -69 385 -35 71 -94 136 -159 173 -25 15 -53 32 -61 39
-23 19 -156 44 -234 44 -75 0 -169 -21 -227 -50 -20 -11 -67 -50 -104 -87 -51
-51 -78 -91 -113 -161 l-45 -93 -10 -172 c-13 -222 6 -487 34 -487 20 0 25 28
32 185 11 249 60 389 170 492 108 101 194 127 325 99 78 -16 109 -35 153 -93
22 -29 29 -49 29 -84 0 -42 -4 -50 -43 -86 -24 -22 -59 -45 -78 -50 -115 -35
-119 -36 -119 -56 0 -18 5 -19 53 -14 115 11 238 -32 305 -109 24 -27 47 -69
62 -114 13 -39 27 -73 32 -76 4 -3 8 -13 8 -22 0 -10 7 -28 16 -40 12 -17 19
-20 33 -13 12 7 22 6 28 0 13 -13 252 -13 388 -1 55 6 129 19 165 30 36 11 91
28 122 36 39 11 78 33 127 72 39 31 71 60 71 63 0 4 15 22 33 41 19 19 47 59
63 89 27 50 29 62 28 150 -3 172 -44 293 -131 380 -66 65 -219 156 -303 180
-81 22 -550 27 -599 6z"/>
<path d="M1460 3030 c-36 -4 -105 -8 -153 -9 -70 -1 -89 -4 -94 -17 -12 -32
28 -46 184 -64 126 -15 292 -47 354 -68 80 -28 109 -45 166 -96 85 -77 144
-230 123 -322 -17 -69 -85 -213 -119 -249 -60 -64 -230 -131 -381 -150 -30 -3
-71 -11 -90 -16 -19 -5 -91 -14 -160 -20 -68 -5 -126 -12 -128 -14 -9 -9 33
-64 52 -68 12 -2 100 -3 196 -1 96 1 192 -2 213 -7 26 -7 70 -6 140 2 81 10
116 19 172 47 162 80 262 166 314 270 12 23 25 42 29 42 4 0 16 -14 26 -31 37
-63 214 -235 273 -267 85 -44 146 -53 406 -55 l236 -2 35 34 c22 21 32 39 27
44 -5 5 -94 12 -197 16 -160 7 -199 12 -254 31 -125 45 -190 107 -198 191 -5
55 16 97 74 148 63 56 91 65 193 66 88 0 94 1 102 23 8 20 5 22 -26 22 -51 0
-261 37 -287 51 -13 6 -38 22 -55 36 -29 21 -33 30 -33 69 0 66 56 124 176
181 50 23 100 43 110 43 11 0 73 14 139 30 66 16 148 33 183 36 34 4 62 11 62
16 0 5 -16 16 -35 24 -43 17 -285 19 -472 3 -114 -10 -137 -15 -208 -48 -69
-32 -90 -49 -155 -122 -42 -46 -83 -101 -93 -121 -18 -41 -37 -50 -37 -18 0
37 -65 144 -117 191 -59 55 -146 111 -201 131 -47 16 -89 20 -242 23 -102 2
-214 0 -250 -5z"/>
<path d="M8495 3029 c-157 -11 -207 -20 -201 -36 4 -8 6 -17 6 -19 0 -2 73 -4
163 -4 111 0 223 -8 358 -25 179 -22 204 -28 270 -60 83 -40 133 -79 143 -113
10 -30 -10 -121 -38 -176 -39 -77 -191 -263 -257 -316 -97 -77 -290 -265 -287
-280 5 -22 53 -14 108 18 128 74 289 211 515 437 117 116 172 215 181 327 5
67 3 78 -23 127 -36 70 -60 87 -157 111 -70 17 -114 19 -385 17 -168 -1 -346
-4 -396 -8z"/>
<path d="M3922 659 c2 -7 10 -15 17 -17 8 -3 12 1 9 9 -2 7 -10 15 -17 17 -8
3 -12 -1 -9 -9z"/>
<path d="M3970 400 c0 -5 4 -10 9 -10 6 0 13 5 16 10 3 6 -1 10 -9 10 -9 0
-16 -4 -16 -10z"/>
</g>
</svg>
